<?xml version="1.0" encoding="UTF-8"?>
<svg width="22px" height="33px" viewBox="0 0 22 33" version="1.1" xmlns="http://www.w3.org/2000/svg" xmlns:xlink="http://www.w3.org/1999/xlink">
    <!-- Generator: Sketch 54.1 (76490) - https://sketchapp.com -->
    <title>Group</title>
    <desc>Created with Sketch.</desc>
    <g id="Page-1" stroke="none" stroke-width="1" fill="none" fill-rule="evenodd">
        <g id="homepage" transform="translate(-974.000000, -1380.000000)" fill="#FFFFFF">
            <g id="accreditations" transform="translate(-73.000000, 1253.000000)">
                <g id="Group" transform="translate(1047.000000, 127.000000)">
                    <path d="M1.0300683,30.8254799 L3.6682835,29.5549738 L4.81151009,32.486911 C5.07533161,33.1710297 5.95473668,33.1710297 6.2185582,32.486911 L10,21.443281 C7.71354682,21.3455497 5.42709364,20.4659686 3.84416452,19 L0.0627227198,29.8481675 C-0.201098801,30.5322862 0.414484747,31.2164049 1.0300683,30.8254799 Z" id="Path"></path>
                    <path d="M18.1928646,19 C16.4483957,20.4659686 14.355033,21.3455497 12,21.443281 L15.7506082,32.486911 C16.0122785,33.1710297 16.884513,33.1710297 17.1461833,32.486911 L18.2800881,29.5549738 L20.8967915,30.8254799 C21.5073556,31.2164049 22.2051431,30.5322862 21.9434728,29.8481675 L18.1928646,19 Z" id="Path"></path>
                    <path d="M21,10.4537445 C21,4.62555066 16.3539823,0 10.5,0 C4.6460177,0 0,4.62555066 0,10.4537445 C0,16.2819383 4.6460177,21 10.5,21 C16.3539823,21 21,16.2819383 21,10.4537445 Z M14.3097345,15.8193833 L10.5,13.4140969 L6.78318584,15.8193833 L8.36283186,11.5638767 L5.11061947,9.43612335 L8.92035398,9.43612335 L10.5,5.08810573 L12.079646,9.43612335 L15.8893805,9.43612335 L12.6371681,11.5638767 L14.3097345,15.8193833 Z" id="Shape"></path>
                </g>
            </g>
        </g>
    </g>
</svg>