<?xml version="1.0" encoding="UTF-8"?>
<svg width="28px" height="37px" viewBox="0 0 28 37" version="1.1" xmlns="http://www.w3.org/2000/svg" xmlns:xlink="http://www.w3.org/1999/xlink">
    <!-- Generator: Sketch 58 (84663) - https://sketch.com -->
    <title>soil_mapping_icon</title>
    <desc>Created with Sketch.</desc>
    <g id="Page-1" stroke="none" stroke-width="1" fill="none" fill-rule="evenodd">
        <g id="Icons" transform="translate(-661.000000, -29.000000)" fill="#36AE98" fill-rule="nonzero">
            <g id="soil_mapping_icon" transform="translate(661.000000, 29.000000)">
                <polygon id="Path" points="14.9549866 31.4257951 14 31.9350899 13.0450134 31.4257951 4.74656 27 0 29.532263 14 37 28 29.532263 23.25344 27"></polygon>
                <polygon id="Path" points="14.9549866 24.4257951 14 24.9350899 13.0450134 24.4257951 4.74656 20 0 22.5318789 14 30 28 22.5318789 23.25344 20"></polygon>
                <path d="M14.5,0 C11.4627043,0 9,2.23876836 9,4.99988 C9,7.76171163 14.5,15 14.5,15 C14.5,15 20,7.76171163 20,4.99988 C20,2.23876836 17.5372957,0 14.5,0 Z M14.5,6.99961601 C13.2850817,6.99961601 12.2998416,6.10432466 12.2998416,4.99952001 C12.2998416,3.89507536 13.2846857,2.99978401 14.5,2.99978401 C15.7153143,2.99978401 16.7001584,3.89507536 16.7001584,4.99952001 C16.7001584,6.10432466 15.7149183,6.99961601 14.5,6.99961601 Z" id="Shape"></path>
                <path d="M18.75776,11 C18.2642134,11.9263654 17.7359466,12.8330287 17.2368,13.6471299 C18.7256534,14.1129147 19.7034134,14.8905858 19.7034134,15.7715994 C19.7034134,17.196834 17.1498134,18.3533038 14,18.3533038 C10.8501866,18.3533038 8.29658666,17.1972058 8.29658666,15.7715994 C8.29658666,14.8902141 9.27434664,14.1129147 10.7632,13.6471299 C10.2640534,12.8330287 9.73578664,11.9263654 9.24224,11 L0,15.7723428 L14,23 L28,15.7723428 L18.75776,11 Z" id="Path"></path>
            </g>
        </g>
    </g>
</svg>