<?xml version="1.0" encoding="UTF-8"?>
<svg width="41px" height="41px" viewBox="0 0 41 41" version="1.1" xmlns="http://www.w3.org/2000/svg" xmlns:xlink="http://www.w3.org/1999/xlink">
    <!-- Generator: Sketch 58 (84663) - https://sketch.com -->
    <title>Group 8</title>
    <desc>Created with Sketch.</desc>
    <defs>
        <polygon id="path-1" points="4.84139431e-05 0.10779899 40.8831545 0.10779899 40.8831545 14.9999273 4.84139431e-05 14.9999273"></polygon>
    </defs>
    <g id="Page-1" stroke="none" stroke-width="1" fill="none" fill-rule="evenodd">
        <g id="Icons" transform="translate(-549.000000, -122.000000)">
            <g id="Group-8" transform="translate(549.000000, 122.000000)">
                <path d="M22.062487,20.7524231 C22.062487,20.7524231 22.4827397,20.9623253 22.7259222,21 C22.9450639,20.8444082 23.3870459,20.5253961 23.484134,20.1975769 C22.4254115,18.0104846 22.8886604,15.6717148 23.9103969,13.0065937 C25.4254334,9.05319199 25.4781384,6.23247903 24.6205269,4.49356943 C24.3380468,3.92061976 24.0051734,4.11143989 24.1674492,4.59387232 C26.12493,10.4173113 19.5913639,15.2396785 22.062487,20.7524231 M23.1660549,10.2289376 C22.5132531,9.17893756 18.8988022,7.47868127 17.6320338,6.85484623 C17.6214004,6.85142125 17.6181641,6.8499534 17.622325,6.85044268 L17.6320338,6.85484623 C17.8613466,6.93117428 21.5678,7.94790308 23.2067394,9.61048462 C21.891427,4.64328984 15.4789899,3.04089003 12,3.83205965 C12.1331494,6.86903541 14.17015,9.49941752 16.0148236,10.8459226 C17.7009201,12.0759786 21.282546,11.927726 23.1660549,10.2289376 M25.5289941,7.18462255 C27.4083421,7.45519571 28.684357,7.2056617 30.20864,5.74319664 C31.6954747,4.11926841 32.2340824,2.1777959 31.9086062,0 C29.0814935,0.863094129 25.4776761,2.14109972 25.3426774,6.66989748 C25.7448995,6.06171948 27.0736193,4.19461789 28.564615,3.6554287 C27.1568377,4.37467381 25.9057883,6.36849953 25.5289941,7.18462255" id="Fill-1" fill="#36AE98"></path>
                <g id="Group-5" transform="translate(0.000000, 26.000000)">
                    <mask id="mask-2" fill="white">
                        <use xlink:href="#path-1"></use>
                    </mask>
                    <g id="Clip-4"></g>
                    <path d="M24.5241314,4.21345266 C24.5396239,4.21723979 11.3870079,0.271998453 11.3870079,0.271998453 C8.90143604,-0.366606126 6.46476227,1.06350835 6.46476227,1.06350835 C6.46476227,1.06350835 1.29415312,3.80870328 1.15423682,3.88823298 C0.124956388,4.47618472 0.00440566885,5.07833818 0.00440566885,6.66609189 L4.84139431e-05,12.3614601 C4.84139431e-05,14.0098079 0.8322841,14.3714787 2.12009499,13.830866 L5.33865395,12.2412187 C6.96826728,11.3308877 8.7610356,11.8341024 8.7610356,11.8341024 L20.487861,14.8775337 C22.1552372,15.3102132 23.6870543,14.456689 23.6870543,14.456689 L39.2807014,5.76144152 C39.2279302,5.79031838 41.8563231,4.27404672 40.4886292,2.01786479 C38.9597169,-0.501995978 36.3187363,0.869418007 36.3187363,0.869418007 L27.1225078,5.92334127 C27.2619399,7.17167358 26.720672,8.41574536 25.779505,9.02263274 C24.6543649,9.74786788 23.2222805,9.4283289 22.8465883,9.33175712 C19.5815519,8.55255538 16.2908562,7.6379638 13.0112957,6.82325774 C12.8244179,6.77497184 12.5983248,6.74846194 12.456956,6.77686541 C11.8469404,6.81236974 11.1764072,7.18682209 10.6966251,7.35345575 C10.460365,7.48553187 10.2613837,7.24078868 10.2158746,7.16409932 C9.94233582,6.70727692 10.5237873,6.53496256 10.6419173,6.4691612 C11.3119663,6.09470885 11.8416148,5.74771318 12.8311958,5.90677259 C16.3867158,6.56667976 20.0013008,7.75725835 23.5960361,8.55634251 C26.421958,9.28536479 27.2914724,4.92495947 24.5241314,4.21345266" id="Fill-3" fill="#36AE98" mask="url(#mask-2)"></path>
                </g>
                <path d="M14,25.0422421 C14.0522088,25.059852 14.7710843,25.2706938 15.8207831,25.5781517 L19.6521084,26.6956612 L23.4342369,27.7922293 C24.313755,28.0454299 24.9432731,28.2248597 25.1144578,28.2691222 C25.8534137,28.4599745 26.8032129,29.1034468 27.2013052,29.9996437 C27.2198795,30.0405746 33.7886546,26.5414563 33.7886546,26.5414563 L34,25.7275972 C34,25.7275972 32.0682731,24.4406527 31.6204819,24.2712177 C31.1721888,24.1017827 30.9733936,24.3545074 30.7771084,23.671532 C30.5808233,22.9890326 30.7906627,22.969995 30.3253012,22.5292736 C29.8599398,22.0885522 29.4216867,22.4436042 29.4216867,22.4436042 C29.4216867,22.4436042 29.3303213,21.6716279 29.060241,21.3299023 C28.7901606,20.9881766 28.6917671,21.2389975 28.0662651,21.0728941 C27.4407631,20.9067907 27.5963855,20.9796097 27.2228916,20.9015554 C26.8498996,20.823977 26.6837349,20.3737368 25.9578313,20.1019745 C25.2319277,19.8302121 24.6626506,20.1876438 24.6626506,20.1876438 C24.6626506,20.1876438 23.4884538,21.5850066 23.126506,21.501241 C22.7640562,21.4174754 20.8418675,20.3737368 20.6566265,20.3875391 C20.4713855,20.4013414 20.1144578,20.9872247 20.1144578,20.9872247 L19.4819277,21.6725798 L17.8253012,21.5869104 L16.7409639,22.614943 C16.7409639,22.614943 16.0953815,22.3641221 14,25.0422421" id="Fill-6" fill="#36AE98"></path>
            </g>
        </g>
    </g>
</svg>