<?xml version="1.0" encoding="UTF-8"?>
<svg width="37px" height="37px" viewBox="0 0 37 37" version="1.1" xmlns="http://www.w3.org/2000/svg" xmlns:xlink="http://www.w3.org/1999/xlink">
    <!-- Generator: Sketch 58 (84663) - https://sketch.com -->
    <title>precision_service_icon</title>
    <desc>Created with Sketch.</desc>
    <g id="Page-1" stroke="none" stroke-width="1" fill="none" fill-rule="evenodd">
        <g id="Icons" transform="translate(-657.000000, -219.000000)" fill="#36AE98" fill-rule="nonzero">
            <g id="precision_service_icon" transform="translate(657.000000, 219.000000)">
                <path d="M21.735974,12.619205 L24.788779,10.413907 C24.056106,9.311258 23.689769,8.086093 23.689769,6.615894 C23.689769,2.940397 26.620462,0 30.283828,0 C34.069307,0 37,2.940397 37,6.615894 C37,10.413907 34.069307,13.354305 30.283828,13.354305 C29.062706,13.354305 27.841584,12.986755 26.864686,12.374172 L24.544554,15.559603 L24.544554,21.930464 L26.620462,24.748344 C27.59736,24.013245 28.940594,23.645695 30.283828,23.645695 C33.947195,23.645695 36.877888,26.708609 36.877888,30.384106 C36.877888,34.059603 33.947195,37 30.283828,37 C26.620462,37 23.567657,34.059603 23.567657,30.384106 C23.567657,29.036424 24.056106,27.811258 24.666667,26.708609 L21.491749,24.503311 L15.264026,24.503311 L12.455446,26.586093 C13.188119,27.688742 13.676568,28.913907 13.676568,30.384106 C13.676568,34.059603 10.623762,37 6.960396,37 C3.29703,37 0.366337,34.059603 0.366337,30.384106 C0.366337,26.708609 3.29703,23.645695 6.960396,23.645695 C8.30363,23.645695 9.524752,24.013245 10.50165,24.748344 L12.69967,21.68543 L12.69967,15.192053 L10.379538,12.251656 C9.280528,12.864238 8.059406,13.354305 6.594059,13.354305 C2.930693,13.354305 0,10.413907 0,6.615894 C0,2.940397 2.930693,0 6.594059,0 C10.379538,0 13.310231,2.940397 13.310231,6.615894 C13.310231,7.963576 12.943894,9.311258 12.211221,10.291391 L15.508251,12.619205 L21.735974,12.619205 Z M27.595506,25.865169 L29.696629,28.831461 L31.303371,30.438202 C31.426966,30.808989 30.685393,31.550562 30.438202,31.426966 L28.707865,29.573034 L25.865169,27.595506 C25.370787,28.460674 25,29.449438 25,30.561798 C25,33.52809 27.47191,36 30.561798,36 C33.52809,36 36,33.52809 36,30.561798 C36,27.47191 33.52809,25 30.561798,25 C29.449438,25 28.460674,25.370787 27.595506,25.865169 Z M25.865169,9.52809 L28.58427,7.550562 L30.191011,5.94382 C30.561798,5.573034 31.303371,6.561798 31.179775,6.808989 L29.573034,8.539326 L27.719101,11.258427 C28.460674,11.752809 29.449438,12 30.438202,12 C33.52809,12 36,9.52809 36,6.438202 C36,3.47191 33.52809,1 30.438202,1 C27.47191,1 25,3.47191 25,6.438202 C25,7.550562 25.370787,8.662921 25.865169,9.52809 Z M9.52809,11.134831 L7.426966,8.292135 L5.820225,6.808989 C5.696629,6.561798 6.438202,5.820225 6.808989,5.94382 L8.41573,7.550562 L11.134831,9.52809 C11.629213,8.662921 12,7.550562 12,6.438202 C12,3.47191 9.52809,1 6.438202,1 C3.47191,1 1,3.47191 1,6.438202 C1,9.52809 3.47191,12 6.438202,12 C7.674157,12 8.662921,11.629213 9.52809,11.134831 Z M11.011236,27.47191 L8.044944,29.573034 L6.438202,31.426966 C6.067416,31.550562 5.325843,30.808989 5.449438,30.438202 L7.05618,28.831461 L9.280899,25.865169 C8.41573,25.370787 7.550562,25 6.438202,25 C3.47191,25 1,27.47191 1,30.561798 C1,33.651685 3.47191,36 6.438202,36 C9.52809,36 12,33.651685 12,30.561798 C12,29.449438 11.629213,28.337079 11.011236,27.47191 Z" id="Shape"></path>
            </g>
        </g>
    </g>
</svg>