<?xml version="1.0" encoding="UTF-8"?>
<svg width="31px" height="33px" viewBox="0 0 31 33" version="1.1" xmlns="http://www.w3.org/2000/svg" xmlns:xlink="http://www.w3.org/1999/xlink">
    <!-- Generator: Sketch 54.1 (76490) - https://sketchapp.com -->
    <title>Shape</title>
    <desc>Created with Sketch.</desc>
    <g id="Page-1" stroke="none" stroke-width="1" fill="none" fill-rule="evenodd">
        <g id="homepage" transform="translate(-800.000000, -2600.000000)" fill="#939393" fill-rule="nonzero">
            <path d="M830.296255,2602.68304 L825.046302,2602.68304 C825.018168,2601.98001 824.975945,2601.2913 824.905544,2600.64567 C824.870366,2600.27979 824.567761,2600 824.208844,2600 L806.791156,2600 C806.432239,2600 806.129634,2600.27979 806.094455,2600.64567 C806.031099,2601.31284 805.988877,2601.99437 805.960742,2602.68304 L800.703745,2602.68304 C800.316694,2602.68304 800,2603.00587 800,2603.40043 L800,2604.26131 C800,2606.85826 801.006393,2609.30459 802.829068,2611.14829 C804.074711,2612.41086 805.615914,2613.2861 807.304876,2613.7022 C808.71941,2618.25044 811.027715,2621.28499 813.701937,2622.22481 L813.701937,2622.5476 C813.701937,2624.11869 812.913746,2626.29959 812.132599,2626.32109 L812.125555,2626.32109 C810.401371,2626.32109 809.000926,2627.75587 809.000926,2629.51349 L809.000926,2632.28261 C809.000926,2632.67717 809.317619,2633 809.704671,2633 L821.302374,2633 C821.689425,2633 822.006119,2632.67717 822.006119,2632.28261 L822.006119,2629.51349 C822.006119,2627.75587 820.605673,2626.32109 818.881489,2626.32109 L818.874445,2626.32109 C818.093298,2626.29959 817.305108,2624.11869 817.305108,2622.5476 L817.305108,2622.22481 C819.97933,2621.28499 822.287634,2618.25044 823.702168,2613.7022 C825.39113,2613.27174 826.932333,2612.40372 828.163887,2611.14829 C829.993607,2609.31177 831,2606.86544 831,2604.26131 L831,2603.40043 C831,2603.00587 830.683306,2602.68304 830.296255,2602.68304 Z M804.662382,2610.80071 C802.946979,2609.02343 802,2606.66187 802,2604.16232 L802,2604 L806.98319,2604 L806.98319,2604.05681 C806.98319,2604.74665 807.006451,2605.42832 807.037529,2606.11003 C807.045251,2606.23986 807.053021,2606.36973 807.06079,2606.49956 C807.09959,2607.14878 807.153929,2607.798 807.223808,2608.43103 C807.239299,2608.58522 807.254838,2608.73942 807.278147,2608.88549 C807.355747,2609.52659 807.441117,2610.15149 807.542026,2610.77639 C807.565334,2610.87377 807.588595,2610.97927 807.604134,2611.08478 C807.705043,2611.66094 807.821444,2612.22903 807.95343,2612.78087 C807.968922,2612.85393 807.984461,2612.92694 808,2613 C806.750294,2612.53742 805.617083,2611.79081 804.662382,2610.80071 Z M814,2627 C814.734383,2625.79018 815.062498,2624.13422 815.062498,2623.02266 L815.062498,2623 C815.203119,2623.00757 815.351559,2623.02266 815.5,2623.02266 C815.648441,2623.02266 815.796881,2623.00757 815.937502,2623 L815.937502,2623.02266 C815.937502,2624.13422 816.265617,2625.79018 817,2627 L814,2627 Z M820.714345,2609.57434 L818.461165,2611.28429 L819.320833,2614.05483 C819.410964,2614.35068 819.313893,2614.68254 819.07126,2614.86291 C818.946474,2614.95671 818.800869,2615 818.662203,2615 C818.51664,2615 818.371035,2614.95671 818.253188,2614.86291 L816.000009,2613.15296 L813.74683,2614.86291 C813.504197,2615.04329 813.17833,2615.04329 812.935697,2614.86291 C812.686082,2614.68254 812.589054,2614.35068 812.679185,2614.05483 L813.538852,2611.28429 L811.285673,2609.57434 C811.042998,2609.38674 810.93903,2609.06206 811.036058,2608.76626 C811.126189,2608.47042 811.39658,2608.26842 811.694688,2608.26842 L814.481711,2608.26842 L815.341379,2605.49784 C815.431509,2605.20204 815.701901,2605 816,2605 C816.298117,2605 816.568508,2605.20204 816.658639,2605.49784 L817.518307,2608.26842 L820.305329,2608.26842 C820.603437,2608.26842 820.873787,2608.47042 820.963917,2608.76626 C821.060987,2609.06206 820.95702,2609.38674 820.714345,2609.57434 Z M829,2604.16232 C829,2606.67 828.051793,2609.03156 826.334166,2610.80071 C825.386006,2611.78269 824.251279,2612.52929 823,2613 C823.023339,2612.92694 823.031071,2612.84581 823.04663,2612.77275 C823.178741,2612.22903 823.28756,2611.66906 823.396379,2611.10097 C823.411938,2610.9874 823.43523,2610.87377 823.458568,2610.76014 C823.559608,2610.15149 823.645088,2609.53471 823.722789,2608.90986 C823.746128,2608.73942 823.76164,2608.5771 823.777199,2608.40666 C823.847168,2607.7818 823.901577,2607.1569 823.940428,2606.5158 C823.948207,2606.36973 823.955939,2606.22366 823.963719,2606.07754 C823.994837,2605.42019 824.018129,2604.76285 824.018129,2604.1055 L824.018129,2604 L829,2604 L829,2604.16232 L829,2604.16232 Z" id="Shape"></path>
        </g>
    </g>
</svg>