<?xml version="1.0" encoding="UTF-8"?>
<svg width="37px" height="36px" viewBox="0 0 37 36" version="1.1" xmlns="http://www.w3.org/2000/svg" xmlns:xlink="http://www.w3.org/1999/xlink">
    <!-- Generator: Sketch 58 (84663) - https://sketch.com -->
    <title>Group</title>
    <desc>Created with Sketch.</desc>
    <g id="Page-1" stroke="none" stroke-width="1" fill="none" fill-rule="evenodd">
        <g id="Icons" transform="translate(-551.000000, -29.000000)" fill="#36AE98" fill-rule="nonzero">
            <g id="Group" transform="translate(551.000000, 29.000000)">
                <path d="M22.7008403,14.5180922 L15.2722689,10.1219244 L15.2722689,18.9142601 L22.7008403,14.5180922 Z M14.6605042,7.1612399 L25.410084,13.5311974 C26.1966387,13.979786 26.1966387,15.0563985 25.410084,15.5049871 L14.7478992,21.7852268 C14.0487395,22.3235331 13,21.7852268 13,20.8880497 L13,8.14813473 C13,7.25095762 13.9613445,6.71265135 14.6605042,7.1612399 Z" id="Shape"></path>
                <path d="M3.14507772,33.6666667 C2.52849741,33.6666667 2,33.1282051 2,32.5 C2,31.8717949 2.52849741,31.3333333 3.14507772,31.3333333 L6.75647668,31.3333333 L6.75647668,30.1666667 C6.75647668,29.5384615 7.28497409,29 7.9015544,29 C8.51813472,29 9.04663212,29.5384615 9.04663212,30.1666667 L9.04663212,31.3333333 L34.8549223,31.3333333 C35.4715026,31.3333333 36,31.8717949 36,32.5 C36,33.1282051 35.4715026,33.6666667 34.8549223,33.6666667 L9.04663212,33.6666667 L9.04663212,34.8333333 C9.04663212,35.4615385 8.51813472,36 7.9015544,36 C7.28497409,36 6.75647668,35.4615385 6.75647668,34.8333333 L6.75647668,33.6666667 L3.14507772,33.6666667 Z" id="Path"></path>
                <path d="M5.53271028,0 L31.4672897,0 C34.4929907,0 37,2.48318043 37,5.48012232 L37,22.5198777 C37,25.5168196 34.4929907,28 31.4672897,28 L5.53271028,28 C2.50700935,28 0,25.6024465 0,22.5198777 L0,5.48012232 C0,2.48318043 2.50700935,0 5.53271028,0 Z M31.4672897,2.14067278 L5.53271028,2.14067278 C3.71728972,2.14067278 2.16121495,3.68195719 2.16121495,5.48012232 L2.16121495,22.5198777 C2.16121495,24.4036697 3.71728972,25.8593272 5.53271028,25.8593272 L31.4672897,25.8593272 C33.2827103,25.8593272 34.838785,24.4036697 34.838785,22.5198777 L34.838785,5.48012232 C34.838785,3.68195719 33.2827103,2.14067278 31.4672897,2.14067278 Z" id="Shape"></path>
            </g>
        </g>
    </g>
</svg>