<?xml version="1.0" encoding="UTF-8"?>
<svg width="14px" height="14px" viewBox="0 0 14 14" version="1.1" xmlns="http://www.w3.org/2000/svg" xmlns:xlink="http://www.w3.org/1999/xlink">
    <!-- Generator: Sketch 54.1 (76490) - https://sketchapp.com -->
    <title>icon</title>
    <desc>Created with Sketch.</desc>
    <g id="Page-1" stroke="none" stroke-width="1" fill="none" fill-rule="evenodd">
        <g id="homepage-menu-open" transform="translate(-1369.000000, -4955.000000)" fill="#FFFFFF">
            <g id="Social" transform="translate(1246.000000, 4942.000000)">
                <path d="M135.768,13 L124.232,13 C123.56,13 123,13.56 123,14.232 L123,17.662 L127.662,17.662 C128.362,17.158 129.104,16.724 130,16.724 C130.868,16.724 131.652,17.158 132.338,17.662 L137,17.662 L137,14.232 C137,13.56 136.44,13 135.768,13 L135.768,13 Z M136.062,16.248 C136.062,16.514 135.852,16.738 135.586,16.738 L133.752,16.738 C133.486,16.738 133.262,16.514 133.262,16.248 L133.262,14.414 C133.262,14.148 133.486,13.938 133.752,13.938 L135.586,13.938 C135.852,13.938 136.062,14.148 136.062,14.414 L136.062,16.248 Z M132.338,20.462 C132.338,19.174 131.288,18.138 130,18.138 C128.712,18.138 127.662,19.174 127.662,20.462 C127.662,21.75 128.712,22.8 130,22.8 C131.288,22.8 132.338,21.75 132.338,20.462 L132.338,20.462 Z M133.57,19.538 C133.654,19.818 133.682,20.112 133.682,20.406 C133.682,22.45 132.03,24.102 130,24.102 C127.97,24.102 126.318,22.45 126.318,20.406 C126.318,20.112 126.346,19.818 126.43,19.538 L123,19.538 L123,25.768 C123,26.44 123.56,27 124.232,27 L135.768,27 C136.44,27 137,26.44 137,25.768 L137,19.538 L133.57,19.538 Z" id="icon"></path>
            </g>
        </g>
    </g>
</svg>