<?xml version="1.0" encoding="UTF-8"?>
<svg width="27px" height="37px" viewBox="0 0 27 37" version="1.1" xmlns="http://www.w3.org/2000/svg" xmlns:xlink="http://www.w3.org/1999/xlink">
    <!-- Generator: Sketch 58 (84663) - https://sketch.com -->
    <title>lab_services</title>
    <desc>Created with Sketch.</desc>
    <g id="Page-1" stroke="none" stroke-width="1" fill="none" fill-rule="evenodd">
        <g id="Icons" transform="translate(-662.000000, -124.000000)" fill="#36AE98" fill-rule="nonzero">
            <g id="lab_services" transform="translate(662.000000, 124.000000)">
                <path d="M9.33803357,0 C8.14173615,0 7.15832321,1.01534468 7.15832321,2.2466773 C7.15832321,3.42969401 8.0675794,4.41546559 9.19783737,4.4933546 L9.23618023,12.4158483 C6.85337504,18.9610147 3.5350855,24.5098189 1.58800211,28.6549726 C0.607444491,30.7425799 -0.079341509,32.4491507 0.00737863331,33.9891889 C0.0507387045,34.75925 0.352913123,35.5126621 0.925160008,36.0387893 C1.49740689,36.5649585 2.26907748,36.8597226 3.21961345,36.9979181 C3.25781372,37.000694 3.29615624,37.000694 3.33435651,36.9979181 L23.665743,36.9979181 C23.7039433,37.000694 23.7422857,37.000694 23.780486,36.9979181 C24.7305733,36.8596805 25.5030189,36.5650846 26.0749395,36.0387893 C26.6468192,35.5124939 26.9496871,34.7591239 26.9927208,33.9891889 C27.0787883,32.4493189 26.3926142,30.7424959 25.4120973,28.6549726 C23.4650139,24.5098609 20.1447257,18.9610147 17.7639193,12.4158483 L17.8022621,4.4933546 C18.9322753,4.41526798 19.8417762,3.42955948 19.8417762,2.2466773 C19.8417762,1.01534468 18.8583633,0 17.6620659,0 L9.33827831,0 L9.33803357,0 Z M9.33803357,1.68172336 L17.6618212,1.68172336 C17.9714602,1.68172336 18.2099202,1.93426355 18.2099202,2.2466773 C18.2099202,2.56580533 17.9714602,2.81163125 17.6618212,2.81163125 L16.9862117,2.81163125 C16.5356551,2.81163243 16.1704072,3.18809833 16.170406,3.65249292 L16.1320632,12.5603713 C16.1324711,12.6590575 16.1497303,12.7568993 16.183051,12.8494176 C18.6360155,19.6469475 22.0550571,25.3520259 23.9459315,29.3776092 C24.8913686,31.3903797 25.410221,33.0137894 25.3608647,33.8972407 C25.3359827,34.3389453 25.2292346,34.5715276 24.9911825,34.7906563 C24.7587185,35.0045715 24.3229969,35.2043601 23.601743,35.3161948 L3.39782619,35.3161948 C2.67591975,35.2043601 2.2412177,35.0046976 2.00842756,34.7906563 C1.76992678,34.5714015 1.6636273,34.3388612 1.63874522,33.8972407 C1.58902188,33.0139996 2.10824138,31.3903378 3.05363778,29.3776092 C4.94447137,25.3521521 8.36151419,19.6468635 10.816559,12.8494176 C10.8498796,12.7568993 10.8671389,12.6590575 10.8675468,12.5603713 L10.816559,3.65249292 C10.8165578,3.18809833 10.4513099,2.81163243 10.0007533,2.81163125 L9.33791121,2.81163125 C9.02819058,2.81163125 8.78981217,2.56580533 8.78981217,2.2466773 C8.78981217,1.93426355 9.02819058,1.68172336 9.33791121,1.68172336 L9.33803357,1.68172336 Z" id="Shape"></path>
                <path d="M10.0951926,19 C9.72649212,19 9.39463038,19.2105068 9.25609057,19.532152 C7.77593481,22.9684435 5.77865275,26.0621713 4.71904415,28.3993781 C4.18923985,29.5679815 3.7914678,30.5518127 4.11883171,31.5682935 C4.28251366,32.0765338 4.72511148,32.5367803 5.26424315,32.7573561 C5.79436441,32.9742235 6.38706061,33.0246469 7.08584445,32.9900366 L19.8302164,32.9900366 C19.837477,32.9900337 19.8447372,32.9899484 19.8519955,32.989781 C20.5919828,32.9731578 21.208903,32.8766586 21.7428277,32.627909 C22.2767071,32.3791594 22.7072608,31.9230899 22.8766025,31.4093938 C23.2153313,30.3820014 22.8064208,29.3856815 22.2592748,28.2387735 C21.1649375,25.9448721 19.1167624,22.9565089 17.6441228,19.5325356 C17.5056599,19.2106702 17.1736375,19 16.8047491,19 L10.0951926,19 L10.0951926,19 Z" id="Path"></path>
                <path d="M12.985,5.00008628 C12.4331204,5.00649327 11.992329,5.35651419 12.0001532,5.78212742 L12.0001532,12.2153337 C11.9938403,12.494024 12.1830173,12.7536533 12.4949665,12.8944229 C12.8069156,13.0351924 13.1930844,13.0351924 13.5050335,12.8944229 C13.8169827,12.7536533 14.0061597,12.494024 13.9998468,12.2153337 L13.9998468,5.78212742 C14.0036776,5.57372019 13.8979613,5.37299127 13.7067806,5.22566732 C13.5155998,5.07834339 13.2552357,4.99697072 12.985,5.00008628 L12.985,5.00008628 Z" id="Path"></path>
            </g>
        </g>
    </g>
</svg>