<?xml version="1.0" encoding="UTF-8"?>
<svg width="43px" height="36px" viewBox="0 0 43 36" version="1.1" xmlns="http://www.w3.org/2000/svg" xmlns:xlink="http://www.w3.org/1999/xlink">
    <!-- Generator: Sketch 58 (84663) - https://sketch.com -->
    <title>Group</title>
    <desc>Created with Sketch.</desc>
    <g id="Page-1" stroke="none" stroke-width="1" fill="none" fill-rule="evenodd">
        <g id="Icons" transform="translate(-549.000000, -508.000000)" fill="#36AE98" fill-rule="nonzero">
            <g id="Group" transform="translate(549.000000, 508.000000)">
                <g id="Group-3" transform="translate(15.000000, 27.000000)">
                    <path d="M11,4 L3,4 L3.89887587,0 C4.77977493,0.580382222 5.71160635,1.06844188 6.69438607,1.45425636 C6.79324926,1.49382604 6.89512989,1.5136109 7,1.5136109 C7.11085132,1.5136109 7.22171121,1.49052523 7.30261591,1.45425636 C8.28239645,1.06844188 9.21422672,0.580382222 10.098125,0 L11,4 Z" id="Path"></path>
                    <path d="M14,6.06635614 L14,7 L0,7 L0,6.06635614 C0,4.92677221 0.790423019,4 1.7587584,4 L12.2412594,4 C13.2095948,4 14,4.92677221 14,6.06635614 Z" id="Path"></path>
                    <path d="M0,7 L14,7 L14,8.72183362 C14,8.87762309 13.8687465,9 13.7083334,9 L0.291666644,9 C0.131253548,9 0,8.87762309 0,8.72183362 L0,7 Z" id="Path"></path>
                </g>
                <path d="M42.7525742,5.87996796 C42.3439456,4.58871208 41.3089425,3.54938701 39.9758524,3.09902178 C38.7700217,2.68644808 37.4871797,2.82502349 36.4588821,3.47695642 C36.2779962,3.59033106 36.1038364,3.73205895 35.9397144,3.8926826 C36.1138742,1.73846857 36.0669764,0.330685575 36.0669764,0.302332325 C36.0602913,0.132270394 35.9129127,0 35.7320268,0 L7.26801926,0 C7.08715387,0 6.93977523,0.132270394 6.93306971,0.302332325 C6.92971693,0.330685607 6.87948679,1.91798803 7.09383896,4.3052563 C6.9196791,4.13204186 6.73210815,3.97457069 6.53783172,3.85489106 C5.5128869,3.20295813 4.23002442,3.06438272 3.02086143,3.47065143 C1.68776875,3.92101667 0.652765627,4.96034173 0.247469301,6.25159761 C-0.439173193,8.43729815 0.304425429,10.4119927 2.46150138,12.1221273 C3.07444435,12.6039791 3.72091497,13.0480585 4.34726899,13.4763755 L4.53148716,13.6023601 C5.04394935,13.9519415 5.57652811,14.3141136 6.06889414,14.6888958 C7.49578251,15.7691649 7.5125259,15.8226997 7.00006371,17.4572512 C6.92303184,17.7028962 6.95316588,17.9611512 7.0838011,18.1847672 C7.21443631,18.4083639 7.42878851,18.5721401 7.69005898,18.6414374 C7.79053976,18.6697715 7.88433545,18.6855147 7.97142561,18.6855147 C8.42695211,18.6855147 8.81883736,18.4083639 8.94947257,17.9989428 C9.69305076,15.6242845 9.40835182,14.7739364 7.34171881,13.2023772 C6.77898558,12.7772127 6.17943325,12.3677723 5.64687489,12.0056002 L5.54637368,11.9363029 C4.94682132,11.5268817 4.32717285,11.1017172 3.76443959,10.6576378 C2.22032705,9.43565996 1.73464611,8.24518796 2.19687813,6.79330841 C2.41460351,6.08468816 2.98066909,5.51464329 3.70415111,5.26582657 C4.31376174,5.06425888 4.91666685,5.12409868 5.40570056,5.43275523 C5.7272595,5.63745622 5.99521505,6.10986972 6.00192058,6.22639684 C5.98515675,6.49410935 5.68706719,6.9161213 5.42244395,7.29405594 C5.301867,7.47042289 5.18464287,7.64363733 5.07410379,7.82000425 C4.78940484,8.2703887 4.94682132,8.85932932 5.43250225,9.13017512 C5.91147767,9.39158265 6.53447891,9.24039726 6.82253063,8.78687951 C6.91632632,8.63886584 7.02015988,8.48768045 7.12734618,8.33651427 C7.26131374,8.14125157 7.40536003,7.93653137 7.53597482,7.71923962 C7.74699467,8.96955145 8.03504637,10.3080564 8.42024652,11.6780478 C10.6476692,19.5799594 15.1292958,24.8709867 21.3861523,26.9811042 C21.4229918,26.993695 21.4598314,27 21.5000237,27 C21.5368837,27 21.577076,26.993695 21.6105628,26.9811042 C27.8674179,24.8709867 32.3523973,19.5799594 34.5764673,11.6780478 C34.9918014,10.2009675 35.2932438,8.75539296 35.5109691,7.42004056 C35.6148027,7.5837975 35.721989,7.74442118 35.8258225,7.89560657 L35.8760731,7.96803716 C35.9799067,8.11605083 36.0837402,8.26408371 36.1775155,8.41524989 C36.4588821,8.8687676 37.0818833,9.02308629 37.5675643,8.75539299 C38.0465397,8.48768048 38.2073089,7.90189234 37.9259627,7.44837463 C37.832167,7.30036096 37.7316863,7.15232808 37.6278527,7.0011619 L37.557506,6.89722555 C37.302941,6.53190092 37.0148893,6.11617471 36.9981459,5.85161471 C37.0048515,5.7161918 37.2861977,5.2532358 37.5910132,5.06112561 C38.0900847,4.74618328 38.6795992,4.68634348 39.2958949,4.89419695 C40.0160446,5.13986119 40.5787575,5.70990606 40.8031679,6.42165957 C41.2620446,7.87355834 40.7763662,9.06403034 39.2322537,10.2860081 C38.6427392,10.7489833 37.989604,11.1961961 37.3531916,11.630818 L37.2661015,11.6906578 C36.7335431,12.05283 36.1808682,12.4276121 35.6516422,12.8307475 C33.5917147,14.3960017 33.3069953,15.2463498 34.0472412,17.6273131 C34.1778764,18.0304485 34.5797995,18.3107326 35.0252882,18.3107326 C35.1157311,18.3107326 35.2162119,18.2981418 35.303302,18.2698078 C35.5679048,18.2005105 35.7822774,18.0367343 35.9129126,17.809985 C36.0435479,17.5863691 36.0736819,17.328114 35.99665,17.0856215 C35.4841674,15.4510701 35.5009108,15.4006685 36.9277992,14.3141136 C37.4067746,13.955094 37.9159044,13.6023601 38.4116232,13.2653695 L38.5422585,13.1740239 C39.2624082,12.6827146 39.9088583,12.2386544 40.5352124,11.7441926 C42.6956385,10.0372106 43.4392167,8.06251602 42.7525742,5.87996796 Z M21.8654427,24.5505421 C21.8117771,24.6760132 21.6877038,24.75 21.5569171,24.75 C21.5133216,24.75 21.469726,24.7403393 21.4261509,24.7242578 C17.6636481,23.2315238 14.6757968,20.3683265 12.5430324,16.2150537 C12.4625546,16.0541993 12.5296263,15.8611818 12.6972952,15.7839748 C12.8649641,15.7035476 13.0628225,15.7710939 13.146657,15.9319483 C15.2022592,19.9404482 18.0761072,22.700716 21.6843471,24.1291042 C21.8553727,24.1998707 21.9358505,24.3864674 21.8654427,24.5505421 Z M28.8273203,8.91336663 L25.6005399,11.9036791 L26.3597919,16.1293842 C26.3830841,16.2465876 26.3298128,16.3669619 26.2299166,16.4398129 C26.1699789,16.4778431 26.1033746,16.5 26.0334371,16.5 C25.9801659,16.5 25.9268744,16.4873362 25.8769364,16.4619891 L21.890904,14.4695109 L17.9015574,16.4619891 C17.7883281,16.5190055 17.6551399,16.5095124 17.5519104,16.4398129 C17.4486809,16.3669619 17.3987226,16.2465876 17.4187019,16.1293842 L18.1812872,11.9036791 L14.9545068,8.91336663 C14.86459,8.82783247 14.8312777,8.70428739 14.8712566,8.58708393 C14.9078818,8.47305125 15.0144445,8.39068789 15.1376533,8.37168243 L19.5965414,7.75714728 L21.5912153,3.91155112 C21.7044242,3.69614963 22.0773837,3.69614963 22.1872797,3.91155112 L24.1819524,7.75714728 L28.6408405,8.37168243 C28.7673825,8.39068789 28.870612,8.47305125 28.9105705,8.58708393 C28.950529,8.70428739 28.917237,8.82783247 28.8273203,8.91336663 Z" id="Shape"></path>
            </g>
        </g>
    </g>
</svg>