<?xml version="1.0" encoding="UTF-8"?>
<svg width="28px" height="27px" viewBox="0 0 28 27" version="1.1" xmlns="http://www.w3.org/2000/svg" xmlns:xlink="http://www.w3.org/1999/xlink">
    <!-- Generator: Sketch 54.1 (76490) - https://sketchapp.com -->
    <title>Group</title>
    <desc>Created with Sketch.</desc>
    <g id="Page-1" stroke="none" stroke-width="1" fill="none" fill-rule="evenodd">
        <g id="homepage-menu-open" transform="translate(-802.000000, -3536.000000)" fill="#939393">
            <g id="News&amp;-Events" transform="translate(0.000000, 3484.000000)">
                <g id="news-events" transform="translate(571.000000, 39.000000)">
                    <g id="Group-9" transform="translate(219.000000, 0.000000)">
                        <g id="Group" transform="translate(12.000000, 13.000000)">
                            <path d="M24.1184473,2.9886468 L27.1071585,2.9886468 C27.5996407,2.9886468 28,3.39526454 28,3.89544976 L28,24.3970494 C28,25.8309117 26.8479313,27 25.4366353,27 L3.51304614,27 C1.58035548,27 0,25.39543 0,23.4325177 L0,0.883908545 C0,0.396166439 0.391046516,0 0.870789622,0 L23.2476675,0 C23.7274101,0 24.1184571,0.396165941 24.1184571,0.883908545 L24.1184571,2.98866671 L24.1184473,2.9886468 Z M23.2422834,25.7358401 C23.0090112,25.3436558 22.8737621,24.8852778 22.8737621,24.3970395 C22.8737621,16.6862505 22.8737621,8.97491403 22.8737621,1.26412504 L1.2446881,1.26412504 L1.2446881,23.4324878 C1.2446881,24.6976332 2.26738579,25.7358252 3.51305251,25.7358252 L23.2422834,25.7358401 L23.2422834,25.7358401 Z M26.7553134,4.25281664 L24.1184424,4.25281664 L24.1184424,24.3970644 C24.1184424,25.13415 24.7113832,25.735865 25.4371205,25.735865 C26.1608975,25.735865 26.7553085,25.1321592 26.7553085,24.3970644 L26.7553085,4.25281664 L26.7553134,4.25281664 Z" id="Shape" fill-rule="nonzero"></path>
                            <path d="M2.86640804,3 L12.133592,3 C12.6105977,3 13,3.34016591 13,3.75685762 L13,8.24314238 C13,8.65806511 12.6085722,9 12.133592,9 L2.86640804,9 C2.38990869,9 2,8.65983409 2,8.24314238 L2,3.75685762 C2,3.33883885 2.38788366,3 2.86640804,3 Z M11.7137995,4.12356621 L3.28620048,4.12356621 L3.28620048,7.87644706 L11.7137995,7.87644706 L11.7137995,4.12356621 Z" id="Shape" fill-rule="nonzero"></path>
                            <path d="M15.6314477,18 L20.3685523,18 C20.7143653,18 21,18.2856359 21,18.6314477 L21,23.3685523 C21,23.7147775 20.7147762,24 20.3685523,24 L15.6314477,24 C15.2856347,24 15,23.7143641 15,23.3685523 L15,18.6314477 C15,18.2856347 15.2856359,18 15.6314477,18 Z M19.9530747,19.0469212 L16.046913,19.0469212 L16.046913,22.9530829 L19.9530747,22.9530829 L19.9530747,19.0469212 Z" id="Shape" fill-rule="nonzero"></path>
                            <path d="M20.9537075,3.5 C20.9537075,3.849494 20.6682125,4.13499 20.3187175,4.13499 L16.6812825,4.13499 C16.3317885,4.13499 16.0462925,3.849495 16.0462925,3.5 C16.0462925,3.150506 16.3317875,2.86501 16.6812825,2.86501 L20.3187175,2.86501 C20.6682115,2.86501 20.9537075,3.150505 20.9537075,3.5 Z" id="Path"></path>
                            <path d="M21,9.5 C21,9.849494 20.7687638,10.13499 20.4856909,10.13499 L15.5143091,10.13499 C15.231237,10.13499 15,9.849495 15,9.5 C15,9.150506 15.2312362,8.86501 15.5143091,8.86501 L20.4856909,8.86501 C20.768763,8.86501 21,9.150505 21,9.5 Z" id="Path"></path>
                            <path d="M21,7.5 C21,7.849494 20.7687638,8.13499 20.4856909,8.13499 L15.5143091,8.13499 C15.231237,8.13499 15,7.849495 15,7.5 C15,7.150506 15.2312362,6.86501 15.5143091,6.86501 L20.4856909,6.86501 C20.768763,6.86501 21,7.150505 21,7.5 Z" id="Path"></path>
                            <path d="M21,12.5 C21,12.849994 20.7346657,13.13499 20.4093862,13.13499 L3.59061385,13.13499 C3.26533524,13.13499 3,12.849995 3,12.5 C3,12.150506 3.26486962,11.86501 3.59061385,11.86501 L20.4093862,11.86501 C20.7351295,11.86501 21,12.150505 21,12.5 Z" id="Path"></path>
                            <path d="M21,14.5 C21,14.849494 20.7351304,15.13499 20.4093862,15.13499 L3.59061385,15.13499 C3.26533524,15.13499 3,14.849995 3,14.5 C3,14.150506 3.26486962,13.86501 3.59061385,13.86501 L20.4093862,13.86501 C20.7346648,13.86501 21,14.150005 21,14.5 Z" id="Path"></path>
                            <path d="M13,17.5 C13,17.849494 12.703615,18.13499 12.3407888,18.13499 L2.65921122,18.13499 C2.29638603,18.13499 2,17.849495 2,17.5 C2,17.150506 2.29638499,16.86501 2.65921122,16.86501 L12.3407888,16.86501 C12.703614,16.86501 13,17.150505 13,17.5 Z" id="Path"></path>
                            <path d="M13,19.5 C13,19.849494 12.703615,20.13499 12.3407888,20.13499 L2.65921122,20.13499 C2.29638603,20.13499 2,19.849495 2,19.5 C2,19.150506 2.29638499,18.86501 2.65921122,18.86501 L12.3407888,18.86501 C12.703614,18.86501 13,19.150505 13,19.5 Z" id="Path"></path>
                            <path d="M11,23.5 C11,23.849494 10.7248673,24.13499 10.3901935,24.13499 L3.60980652,24.13499 C3.27513367,24.13499 3,23.849495 3,23.5 C3,23.150506 3.27417237,22.86501 3.60980652,22.86501 L10.3901935,22.86501 C10.7258267,22.86501 11,23.150505 11,23.5 Z" id="Path"></path>
                            <path d="M12.5,22.86501 C12.850494,22.86501 13.13499,23.149505 13.13499,23.5 C13.13499,23.850494 12.850495,24.13499 12.5,24.13499 C12.149506,24.13499 11.86501,23.850495 11.86501,23.5 C11.86501,23.149506 12.149505,22.86501 12.5,22.86501 Z" id="Path"></path>
                        </g>
                    </g>
                </g>
            </g>
        </g>
    </g>
</svg>