<?xml version="1.0" encoding="UTF-8"?>
<svg width="23px" height="22px" viewBox="0 0 23 22" version="1.1" xmlns="http://www.w3.org/2000/svg" xmlns:xlink="http://www.w3.org/1999/xlink">
    <!-- Generator: Sketch 54.1 (76490) - https://sketchapp.com -->
    <title>Group</title>
    <desc>Created with Sketch.</desc>
    <g id="Page-1" stroke="none" stroke-width="1" fill="none" fill-rule="evenodd">
        <g id="homepage-menu-open" transform="translate(-813.000000, -4387.000000)" fill="#009050" fill-rule="nonzero">
            <g id="newsletter" transform="translate(470.000000, 4338.000000)">
                <g id="Group" transform="translate(343.000000, 49.000000)">
                    <path d="M10.5017367,0.231057464 C7.06981074,2.8893215 3.63102822,5.57309017 0.199656454,8.24401699 C0.0754488286,8.33989602 -0.000614701525,8.49575829 3.74271292e-06,8.6530838 L3.74271292e-06,19.9466334 C0.0168192926,21.2504398 0.766670153,21.9967256 2.07639204,22 L20.9395804,22 C22.2393877,21.9872093 22.9999974,21.2267003 22.9999974,19.9305939 L22.9999974,8.6530838 C23.0005085,8.49575829 22.9245524,8.33989602 22.8003447,8.24401699 C19.3530589,5.59524365 15.9502381,2.86118198 12.4982638,0.231057464 C12.0111112,-0.0770191547 10.9888893,-0.0770191547 10.5017367,0.231057464 Z M12.0270834,1.15347104 C15.1787213,3.59797702 18.3386979,6.06762951 21.4906091,8.524742 C18.2960303,10.9233626 15.2307217,13.5293383 12.0190845,15.8880188 C11.6430628,16.0728187 11.3569122,16.0728187 10.9808904,15.8880188 C7.81962582,13.4512895 4.66328832,10.9807929 1.50936556,8.524742 C4.68390142,6.09556438 7.7878245,3.56387704 10.9728915,1.15347104 C11.2444448,0.949664148 11.7555557,0.949664148 12.0270834,1.15347104 Z" id="Shape"></path>
                </g>
            </g>
        </g>
    </g>
</svg>