<?xml version="1.0" encoding="UTF-8"?>
<svg width="16px" height="12px" viewBox="0 0 16 12" version="1.1" xmlns="http://www.w3.org/2000/svg" xmlns:xlink="http://www.w3.org/1999/xlink">
    <!-- Generator: Sketch 54.1 (76490) - https://sketchapp.com -->
    <title>icon</title>
    <desc>Created with Sketch.</desc>
    <g id="Page-1" stroke="none" stroke-width="1" fill="none" fill-rule="evenodd">
        <g id="homepage-menu-open" transform="translate(-1313.000000, -4956.000000)" fill="#FFFFFF">
            <g id="Social" transform="translate(1246.000000, 4942.000000)">
                <path d="M81.3264187,17.6288164 C81.2601624,18.8608697 80.892895,20.0775494 80.3302121,21.186198 C78.6685407,24.3958303 75.4740436,26.1740783 71.8017089,25.9865202 C70.0759123,25.8983781 68.3964753,25.3223509 67,24.3489631 C67.2397571,24.3808184 67.4995817,24.4136986 67.7403905,24.4259975 C69.1852435,24.4997909 70.5951348,24.1011558 71.7651836,23.298069 C70.4217193,23.2098438 69.2650011,22.2683113 68.9108937,20.9951785 C69.1094643,21.0445404 69.3090867,21.0743459 69.5097607,21.0845949 C69.7907043,21.0989437 70.0737514,21.0741796 70.3589017,21.0103027 C68.8896893,20.6411135 67.8543419,19.3135775 67.9733533,17.8488972 L67.9754566,17.8097844 C68.4043192,18.0670091 68.8785751,18.2285017 69.3992759,18.2747057 C68.5277934,17.6418928 68.0575736,16.6569816 68.1133131,15.6204923 C68.1427604,15.072913 68.3126794,14.5325082 68.6188636,14.0775032 C70.1402061,16.0966045 72.4651257,17.3919526 75.006324,17.6590107 C74.958742,17.4212591 74.9512949,17.1855574 74.9639151,16.9508806 C75.0564637,15.2299172 76.5559191,13.9141812 78.3218505,14.004373 C79.1847488,14.0484441 80.0086494,14.4435054 80.5770174,15.1000575 C81.3068057,15.0000593 82.0027693,14.780673 82.6437892,14.4604299 C82.3651196,15.1521615 81.8297805,15.7523436 81.1475742,16.0900933 C81.7928861,16.0642211 82.4043734,15.9189607 83,15.6944498 C82.5449305,16.2987316 81.9736634,16.8186384 81.3284368,17.2171071 C81.3411424,17.3550268 81.3337806,17.4919216 81.3264187,17.6288164 L81.3264187,17.6288164 Z" id="icon"></path>
            </g>
        </g>
    </g>
</svg>