<?xml version="1.0" encoding="UTF-8"?>
<svg width="19px" height="15px" viewBox="0 0 19 15" version="1.1" xmlns="http://www.w3.org/2000/svg" xmlns:xlink="http://www.w3.org/1999/xlink">
    <!-- Generator: Sketch 54.1 (76490) - https://sketchapp.com -->
    <title>Group 3</title>
    <desc>Created with Sketch.</desc>
    <defs>
        <polygon id="path-1" points="2.84217094e-14 0.529411765 15 0.529411765 15 18.4117647 2.84217094e-14 18.4117647"></polygon>
    </defs>
    <g id="Page-1" stroke="none" stroke-width="1" fill="none" fill-rule="evenodd">
        <g id="homepage" transform="translate(-1419.000000, -39.000000)">
            <g id="header" transform="translate(161.000000, 17.000000)">
                <g id="portal-login" transform="translate(1140.000000, 12.000000)">
                    <g id="Group-3" transform="translate(127.500000, 17.500000) rotate(-90.000000) translate(-127.500000, -17.500000) translate(120.000000, 8.000000)">
                        <mask id="mask-2" fill="white">
                            <use xlink:href="#path-1"></use>
                        </mask>
                        <g id="Clip-2"></g>
                        <path d="M7.50002368,18.4117647 C7.68278816,18.4117647 7.92515833,18.3004943 8.0431855,18.1876342 L14.7537603,11.8297204 C15.0584993,11.5324693 15.0936312,11.0516221 14.78455,10.7054915 C14.5078375,10.3963186 13.968623,10.3883707 13.6682261,10.6744947 L8.28950307,15.7786291 L8.28950307,1.32420067 C8.28950307,0.885079799 7.93621104,0.529411765 7.50002368,0.529411765 C7.06423106,0.529411765 6.7105443,0.885079799 6.7105443,1.32420067 L6.7105443,15.7786291 L1.33221598,10.6744947 C1.03181907,10.3883707 0.50563106,10.4086378 0.215892125,10.7054915 C-0.0900311374,11.0186383 -0.0627940986,11.5372381 0.246681821,11.8297204 L6.95725661,18.1876342 C7.1392316,18.3744096 7.31449603,18.4085856 7.50002368,18.4117647" id="Fill-1" fill="#FFFFFF" mask="url(#mask-2)"></path>
                    </g>
                </g>
            </g>
        </g>
    </g>
</svg>