<?xml version="1.0" encoding="UTF-8"?>
<svg width="34px" height="33px" viewBox="0 0 34 33" version="1.1" xmlns="http://www.w3.org/2000/svg" xmlns:xlink="http://www.w3.org/1999/xlink">
    <!-- Generator: Sketch 58 (84663) - https://sketch.com -->
    <title>news_icon</title>
    <desc>Created with Sketch.</desc>
    <g id="Page-1" stroke="none" stroke-width="1" fill="none" fill-rule="evenodd">
        <g id="Icons" transform="translate(-552.000000, -316.000000)" fill-rule="nonzero">
            <g id="news_icon" transform="translate(552.000000, 316.000000)">
                <path d="M29.286686,3.65279053 L32.9158353,3.65279053 C33.5138494,3.65279053 34,4.14976777 34,4.76110526 L34,29.8186159 C34,31.5711143 32.6010594,33 30.8873429,33 L4.26584174,33 C1.91900308,33 0,31.0388589 0,28.6397439 L0,1.08033267 C0,0.484203425 0.474842198,0 1.0573874,0 L28.2293105,0 C28.8118551,0 29.2866979,0.484202817 29.2866979,1.08033267 L29.2866979,3.65281487 L29.286686,3.65279053 Z M28.2227727,31.4549157 C27.9395136,30.9755793 27.7752825,30.4153395 27.7752825,29.8186038 C27.7752825,20.3943062 27.7752825,10.9693394 27.7752825,1.54504172 L1.51140698,1.54504172 L1.51140698,28.6397073 C1.51140698,30.1859961 2.75325417,31.4549157 4.26584948,31.4549157 L28.2227727,31.4549157 L28.2227727,31.4549157 Z M32.4885948,5.197887 L29.2866801,5.197887 L29.2866801,29.8186343 C29.2866801,30.7195167 30.0066796,31.4549461 30.887932,31.4549461 C31.7668041,31.4549461 32.4885948,30.7170835 32.4885948,29.8186343 L32.4885948,5.197887 L32.4885948,5.197887 Z" id="Shape" fill="#00A2B4"></path>
                <path d="M4.02393677,4 L14.9760633,4 C15.5397973,4 16,4.39686023 16,4.88300056 L16,10.1169994 C16,10.601076 15.5374035,11 14.9760633,11 L4.02393677,11 C3.46080118,11 3,10.6031398 3,10.1169994 L3,4.88300056 C3,4.39531199 3.45840796,4 4.02393677,4 Z M14.4799449,5.31082725 L4.52005511,5.31082725 L4.52005511,9.68918824 L14.4799449,9.68918824 L14.4799449,5.31082725 Z" id="Shape" fill="#36AE98"></path>
                <path d="M18.736689,22 L24.263311,22 C24.6667595,22 25,22.3332419 25,22.736689 L25,28.263311 C25,28.6672404 24.6672389,29 24.263311,29 L18.736689,29 C18.3332405,29 18,28.6667581 18,28.263311 L18,22.736689 C18,22.3332405 18.3332419,22 18.736689,22 Z M23.7785872,23.2214081 L19.2213985,23.2214081 L19.2213985,27.7785967 L23.7785872,27.7785967 L23.7785872,23.2214081 Z" id="Shape" fill="#36AE98"></path>
                <path d="M25,4 C25,4.55039292 24.6509425,5 24.2236361,5 L19.7763639,5 C19.3490587,5 19,4.55039449 19,4 C19,3.44960708 19.3490575,3 19.7763639,3 L24.2236361,3 C24.6509413,3 25,3.44960551 25,4 Z" id="Path" fill="#36AE98"></path>
                <path d="M25,12 C25,12.5503929 24.7302244,13 24.3999727,13 L18.6000273,13 C18.2697765,13 18,12.5503945 18,12 C18,11.4496071 18.2697756,11 18.6000273,11 L24.3999727,11 C24.7302235,11 25,11.4496055 25,12 Z" id="Path" fill="#36AE98"></path>
                <path d="M25,9 C25,9.55039292 24.7302244,10 24.3999727,10 L18.6000273,10 C18.2697765,10 18,9.55039449 18,9 C18,8.44960708 18.2697756,8 18.6000273,8 L24.3999727,8 C24.7302235,8 25,8.44960551 25,9 Z" id="Path" fill="#36AE98"></path>
                <path d="M26,15 C26,15.5511803 25.6757025,16 25.2781387,16 L4.72186137,16 C4.32429863,16 4,15.5511819 4,15 C4,14.4496071 4.32372954,14 4.72186137,14 L25.2781387,14 C25.6762694,14 26,14.4496055 26,15 Z" id="Path" fill="#36AE98"></path>
                <path d="M26,18 C26,18.5503929 25.6762705,19 25.2781387,19 L4.72186137,19 C4.32429863,19 4,18.5511819 4,18 C4,17.4496071 4.32372954,17 4.72186137,17 L25.2781387,17 C25.6757014,17 26,17.4488181 26,18 Z" id="Path" fill="#36AE98"></path>
                <path d="M16,21 C16,21.5503929 15.6497268,22 15.2209322,22 L3.77906781,22 C3.3502744,22 3,21.5503945 3,21 C3,20.4496071 3.35027317,20 3.77906781,20 L15.2209322,20 C15.6497256,20 16,20.4496055 16,21 Z" id="Path" fill="#36AE98"></path>
                <path d="M16,24 C16,24.5503929 15.6497268,25 15.2209322,25 L3.77906781,25 C3.3502744,25 3,24.5503945 3,24 C3,23.4496071 3.35027317,23 3.77906781,23 L15.2209322,23 C15.6497256,23 16,23.4496055 16,24 Z" id="Path" fill="#36AE98"></path>
                <path d="M14,29 C14,29.5503929 13.6560841,30 13.2377419,30 L4.76225815,30 C4.34391709,30 4,29.5503945 4,29 C4,28.4496071 4.34271546,28 4.76225815,28 L13.2377419,28 C13.6572834,28 14,28.4496055 14,29 Z" id="Path" fill="#36AE98"></path>
                <path d="M15,28 C15.5519677,28 16,28.4480307 16,29 C16,29.5519677 15.5519693,30 15,30 C14.4480323,30 14,29.5519693 14,29 C14,28.4480323 14.4480307,28 15,28 Z" id="Path" fill="#36AE98"></path>
            </g>
        </g>
    </g>
</svg>