<?xml version="1.0" encoding="UTF-8"?>
<svg width="41px" height="41px" viewBox="0 0 41 41" version="1.1" xmlns="http://www.w3.org/2000/svg" xmlns:xlink="http://www.w3.org/1999/xlink">
    <!-- Generator: Sketch 58 (84663) - https://sketch.com -->
    <title>Shape</title>
    <desc>Created with Sketch.</desc>
    <g id="Page-1" stroke="none" stroke-width="1" fill="none" fill-rule="evenodd">
        <g id="Icons" transform="translate(-549.000000, -221.000000)" fill="#30AD9B" fill-rule="nonzero">
            <path d="M588.9986,251.666518 L588.481954,251.826678 L587.391245,247.23332 L586.778911,247.367867 C581.720892,248.469744 576.975399,251.26933 573.824497,253.473122 C578.346761,249.12962 585.235359,246.893763 585.324668,246.861738 L584.941942,245.644552 C584.610294,245.747035 579.099399,247.534401 574.577135,251.115583 L573.277561,251.115583 L573.244087,251.115583 L570.125071,251.115583 C570.112302,250.487771 570.093186,249.885572 570.054916,249.296154 C571.215781,248.89259 573.671423,247.707386 574.583526,245.349846 C575.502008,242.973069 574.443222,240.468189 573.67143,239.366273 C573.57578,239.225352 573.371667,238.975491 573.05275,238.981904 C572.906022,238.981904 572.772103,239.033168 572.663639,239.122863 L572.574374,239.180501 C571.196633,240.064581 570.169726,240.993518 569.493622,241.960887 C569.487237,241.685419 569.480852,241.41632 569.480852,241.134439 C569.480852,240.961493 569.487237,240.788508 569.480852,240.621936 C569.493622,239.03958 569.646696,237.335459 570.023037,235.400721 L571.38797,234.382127 C573.384392,232.883016 574.532525,230.672849 574.532525,228.321684 C574.532525,225.970558 573.384392,223.766759 571.38797,222.267654 L569.882688,221.127345 C569.653074,220.960773 569.340541,220.95436 569.11728,221.127345 L567.605613,222.261286 C565.609192,223.753946 564.461096,225.964151 564.461096,228.315278 C564.461096,230.666443 565.609192,232.876655 567.605613,234.369308 L568.753708,235.240568 C568.651674,235.785136 568.562364,236.310459 568.492215,236.822962 C567.694923,235.522449 566.349099,234.260412 564.461096,233.068833 C564.416442,233.036808 564.378178,233.017569 564.359062,232.998331 C564.244258,232.908674 564.103916,232.850997 563.950842,232.850997 C563.600039,232.850997 563.427811,233.100852 563.306623,233.286624 C563.057861,233.651794 560.914744,236.976702 562.279716,240.436157 C563.600039,243.767478 567.376005,245.074366 568.262602,245.272963 C568.281717,245.279376 568.294487,245.279376 568.313641,245.285789 C568.371027,245.298576 568.415675,245.304989 568.441176,245.304989 C568.447561,245.34984 568.447561,245.401097 568.453945,245.445948 C568.434791,246.310796 568.524101,247.290984 568.715438,248.373629 C568.785632,249.257709 568.836627,250.167446 568.849396,251.115577 L564.856547,251.115577 C562.624127,249.264128 559.218111,247.271752 554.013365,245.644546 L553.637062,246.86815 C560.6277,249.052743 564.193212,251.909967 565.991911,254.049709 C559.811297,249.366649 552.450664,247.463937 552.093477,247.374241 L551.462028,247.214082 L550.409627,251.794652 L549.995021,251.666518 L549,254.824854 L567.197431,260.443257 C567.273971,260.737963 567.42066,261.019844 567.643883,261.25688 C568.090373,261.730945 568.753708,262 569.468121,262 C570.176111,262 570.839439,261.737358 571.279551,261.269667 C571.509152,261.032637 571.65588,260.750751 571.73242,260.462496 L590,254.824854 L588.9986,251.666518 Z M572,253 C570.930136,254.176784 569.976414,255.507471 569.287984,257 L568.292664,257 C568.063383,256.24185 567.465054,254.745092 566,253 L572,253 Z M552,252.631568 L552.77493,249 C554.998034,249.707115 562.696327,252.459943 568,258 L552,252.631568 Z M570.842716,260.705841 C570.462328,261.09905 569.526458,261.09905 569.152108,260.699822 C569.073615,260.621183 568.989073,260.494132 569.001161,260.282428 L569.206467,259.06048 L569.218519,259 L570.776311,259 L570.999713,260.336847 C571.005751,260.500187 570.915165,260.627232 570.842716,260.705841 Z M570,258 C571.141519,256.94436 577.852616,250.955614 585.197197,249 L586,252.640604 L570,258 Z" id="Shape"></path>
        </g>
    </g>
</svg>