<?xml version="1.0" encoding="UTF-8"?>
<svg width="35px" height="33px" viewBox="0 0 35 33" version="1.1" xmlns="http://www.w3.org/2000/svg" xmlns:xlink="http://www.w3.org/1999/xlink">
    <!-- Generator: Sketch 58 (84663) - https://sketch.com -->
    <title>Group</title>
    <desc>Created with Sketch.</desc>
    <g id="Page-1" stroke="none" stroke-width="1" fill="none" fill-rule="evenodd">
        <g id="Icons" transform="translate(-553.000000, -411.000000)" fill-rule="nonzero">
            <g id="Group" transform="translate(553.000000, 411.000000)">
                <path d="M23,13.4630137 L23,3.3369863 C23,1.49589041 21.5307125,0 19.7223587,0 L3.27764128,0 C1.46928747,0 0,1.49589041 0,3.3369863 L0,13.4630137 C0,15.0739726 1.13022113,16.4547945 2.65601966,16.7424658 L2.65601966,19.7342466 C2.65601966,20.0794521 2.82555283,20.4246575 3.05159705,20.6547945 C3.27764128,20.8849315 3.56019656,21 3.8992629,21 C4.23832924,21 4.52088452,20.8849315 4.8034398,20.6547945 L8.53316953,16.8575342 L19.8353808,16.8575342 C21.5307125,16.8575342 23,15.3041096 23,13.4630137 Z M12.3759214,13.1178082 C12.3759214,13.4054795 12.1498771,13.6356164 11.8673219,13.6356164 L10.5675676,13.6356164 C10.2850123,13.6356164 10.0589681,13.4054795 10.0589681,13.1178082 L10.0589681,12.2547945 C10.0589681,11.9671233 10.2850123,11.7369863 10.5675676,11.7369863 L11.8673219,11.7369863 C12.1498771,11.7369863 12.3759214,11.9671233 12.3759214,12.2547945 L12.3759214,13.1178082 Z M14.4668305,7.93972603 C14.1277641,8.45753425 13.6756757,8.80273973 13.1670762,9.09041096 C12.8845209,9.2630137 12.6584767,9.49315068 12.5454545,9.72328767 C12.4889435,9.89589041 12.4324324,10.0684932 12.3759214,10.3561644 C12.3759214,10.5287671 12.2063882,10.7013699 12.036855,10.7013699 L10.3980344,10.7013699 C10.1719902,10.7013699 10.002457,10.5287671 10.0589681,10.2986301 C10.1154791,9.83835616 10.2285012,9.49315068 10.3980344,9.20547945 C10.6240786,8.86027397 11.019656,8.51506849 11.6412776,8.05479452 C11.980344,7.88219178 12.2063882,7.59452055 12.3759214,7.30684932 C12.5454545,7.01917808 12.6584767,6.6739726 12.6584767,6.27123288 C12.6584767,5.86849315 12.5454545,5.58082192 12.3194103,5.29315068 C12.0933661,5.0630137 11.8108108,4.94794521 11.4152334,4.94794521 C11.0761671,4.94794521 10.8501229,5.0630137 10.6240786,5.23561644 C10.5110565,5.35068493 10.3980344,5.52328767 10.3415233,5.69589041 C10.2850123,5.9260274 10.0589681,6.09863014 9.83292383,6.09863014 L8.30712531,6.09863014 C8.13759214,6.09863014 7.96805897,5.9260274 7.96805897,5.75342466 C8.02457002,4.94794521 8.30712531,4.31506849 8.87223587,3.85479452 C9.49385749,3.3369863 10.3415233,3.10684932 11.3587224,3.10684932 C12.4889435,3.10684932 13.3366093,3.39452055 13.958231,3.96986301 C14.5798526,4.54520548 14.9189189,5.29315068 14.9189189,6.27123288 C14.97543,6.90410959 14.8058968,7.42191781 14.4668305,7.93972603 Z" id="Shape" fill="#00A2B4"></path>
                <path d="M31.6740196,12 L25.4166667,12 L25.4166667,14.0192308 C25.4166667,17.1923077 22.879902,19.7884615 19.7794118,19.7884615 L12,19.7884615 L12,25.5 C12,27.3461538 13.4656863,28.8461538 15.2696078,28.8461538 L26.5441176,28.8461538 L30.2647059,32.6538462 C30.4901961,32.8846154 30.8284314,33 31.1666667,33 C31.504902,33 31.7867647,32.8846154 32.0122549,32.6538462 C32.2377451,32.4230769 32.4068627,32.0769231 32.4068627,31.7307692 L32.4068627,28.7307692 C33.872549,28.5 35,27.1730769 35,25.5576923 L35,15.3461538 C35,13.5 33.5343137,12 31.6740196,12 Z" id="Path" fill="#36AE98"></path>
            </g>
        </g>
    </g>
</svg>